<svg width="17" height="16" viewBox="0 0 17 16" fill="none" xmlns="http://www.w3.org/2000/svg">
<g clip-path="url(#clip0_52_76)">
<path fill-rule="evenodd" clip-rule="evenodd" d="M2.11624 1.04471C1.99308 1.10678 1.84187 1.28985 1.82073 1.40248C1.77324 1.65571 1.85789 1.87047 2.06286 2.01665C2.14883 2.07798 2.17492 2.08055 2.84905 2.09427C3.50481 2.10762 3.55323 2.11213 3.6625 2.17002C3.88565 2.28822 3.87001 2.23736 4.43368 4.68015C4.71791 5.91204 4.96844 6.9698 4.99039 7.03075C5.05941 7.22235 5.19175 7.46434 5.30764 7.61096C5.36908 7.6887 5.41936 7.76017 5.41936 7.76977C5.41936 7.7794 5.35707 7.85541 5.28095 7.93873C5.1217 8.11296 4.97732 8.38268 4.91542 8.62156C4.8604 8.83382 4.8604 9.21697 4.91542 9.42924C5.07057 10.028 5.57916 10.5155 6.17771 10.6393C6.34894 10.6747 6.90869 10.6793 10.3476 10.6731C14.3163 10.666 14.3199 10.666 14.4291 10.6089C14.4893 10.5775 14.5754 10.4995 14.6205 10.4356C14.6937 10.3321 14.7026 10.2977 14.7026 10.1191C14.7026 9.94056 14.6937 9.90617 14.6205 9.80264C14.5754 9.73877 14.4893 9.66081 14.4291 9.62939C14.32 9.57241 14.3102 9.57224 10.3276 9.5586L6.33538 9.54493L6.23259 9.48102C5.90712 9.27865 5.90712 8.77214 6.23259 8.56977L6.33538 8.50586L8.14007 8.49219C9.90357 8.47882 9.94724 8.47721 10.0541 8.4214C10.1143 8.38998 10.2004 8.31202 10.2455 8.24815C10.3187 8.14463 10.3276 8.11023 10.3276 7.93165C10.3276 7.75306 10.3187 7.71867 10.2455 7.61514C10.2004 7.55127 10.1143 7.47331 10.0541 7.44189C9.94787 7.38641 9.89985 7.38436 8.37249 7.37083C6.64518 7.35549 6.70941 7.36177 6.44869 7.1824C6.28936 7.07278 6.16262 6.92389 6.08666 6.75712C6.04168 6.65838 5.20061 3.12437 5.20061 3.03413C5.20061 3.02826 7.2474 3.02344 9.74905 3.02344H14.2975L14.418 3.0871C14.4957 3.12814 14.5666 3.19606 14.6176 3.27845C14.7644 3.51538 14.7664 3.50756 14.1072 5.21258C13.7842 6.04815 13.5011 6.76798 13.4782 6.81219C13.3882 6.98604 13.2106 7.15022 13.0001 7.25429L12.7915 7.35743L12.3115 7.3711C11.7594 7.38682 11.6729 7.41386 11.5307 7.61514C11.4576 7.71867 11.4487 7.75306 11.4487 7.93165C11.4487 8.11023 11.4576 8.14463 11.5307 8.24815C11.6689 8.44382 11.767 8.47713 12.2356 8.48732C12.6886 8.49722 12.9347 8.46758 13.238 8.36652C13.7581 8.19322 14.2416 7.7765 14.4826 7.29355C14.581 7.09649 15.7392 4.08219 15.7787 3.92051C15.8233 3.73769 15.8174 3.34697 15.7671 3.15281C15.6121 2.55494 15.1069 2.07008 14.5061 1.94279C14.3478 1.90924 13.6087 1.90322 9.6029 1.90281L4.88608 1.90235L4.82045 1.77867C4.67682 1.50789 4.30431 1.20407 3.96257 1.07895C3.80261 1.02038 3.74486 1.01611 2.99944 1.00793C2.30321 1.00031 2.19548 1.00482 2.11624 1.04471ZM6.10296 11.7617C5.8847 11.8188 5.58783 11.9756 5.4198 12.1225C5.23796 12.2816 5.03368 12.5906 4.94984 12.8332C4.89639 12.988 4.88616 13.0725 4.88616 13.3594C4.88616 13.6474 4.8963 13.7305 4.95061 13.8878C5.08727 14.2837 5.41187 14.6535 5.78011 14.833C6.05773 14.9683 6.26366 15.0086 6.59482 14.9925C6.94725 14.9753 7.1508 14.9092 7.43356 14.7201C7.76794 14.4964 8.01166 14.1505 8.11212 13.757C8.16533 13.5486 8.1655 13.1712 8.11248 12.9618C7.9655 12.3811 7.49139 11.907 6.91069 11.76C6.70785 11.7087 6.30248 11.7095 6.10296 11.7617ZM12.6655 11.7617C12.4472 11.8188 12.1503 11.9756 11.9823 12.1225C11.8005 12.2816 11.5962 12.5906 11.5123 12.8332C11.4589 12.988 11.4487 13.0725 11.4487 13.3594C11.4487 13.6474 11.4588 13.7305 11.5131 13.8878C11.6498 14.2837 11.9744 14.6535 12.3426 14.833C12.6202 14.9683 12.8262 15.0086 13.1573 14.9925C13.5097 14.9753 13.7133 14.9092 13.9961 14.7201C14.3304 14.4964 14.5742 14.1505 14.6746 13.757C14.7278 13.5486 14.728 13.1712 14.675 12.9618C14.528 12.3811 14.0539 11.907 13.4732 11.76C13.2704 11.7087 12.865 11.7095 12.6655 11.7617ZM6.35219 12.8535C6.18436 12.9059 6.05513 13.0403 6.00422 13.2154C5.96651 13.3451 5.96659 13.374 6.00509 13.5064C6.03547 13.6109 6.07835 13.681 6.15343 13.7488C6.45009 14.0168 6.91058 13.8867 7.02201 13.5033C7.05958 13.3741 7.05958 13.3447 7.02201 13.2154C6.96986 13.036 6.84107 12.9056 6.66318 12.852C6.50814 12.8054 6.5066 12.8054 6.35219 12.8535ZM12.9147 12.8535C12.7469 12.9059 12.6176 13.0403 12.5667 13.2154C12.529 13.3451 12.5291 13.374 12.5676 13.5064C12.598 13.6109 12.6408 13.681 12.7159 13.7488C13.0126 14.0168 13.4731 13.8867 13.5845 13.5033C13.6221 13.3741 13.6221 13.3447 13.5845 13.2154C13.5324 13.036 13.4036 12.9056 13.2257 12.852C13.0706 12.8054 13.0691 12.8054 12.9147 12.8535Z" fill="#040404"/>
</g>
<defs>
<clipPath id="clip0_52_76">
<rect width="14" height="14" fill="white" transform="translate(1.81006 1)"/>
</clipPath>
</defs>
</svg>
