<svg width="17" height="16" viewBox="0 0 17 16" fill="none" xmlns="http://www.w3.org/2000/svg">
<path d="M10.3151 12.5V13C10.3151 13.5304 10.1044 14.0391 9.72931 14.4142C9.35424 14.7893 8.84553 15 8.3151 15C7.78466 15 7.27596 14.7893 6.90088 14.4142C6.52581 14.0391 6.3151 13.5304 6.3151 13V12.5M13.6801 11.4822C12.8776 10.5 12.311 10 12.311 7.29219C12.311 4.8125 11.0448 3.92906 10.0026 3.5C9.86416 3.44312 9.73385 3.3125 9.69166 3.17031C9.50885 2.54812 8.99635 2 8.3151 2C7.63385 2 7.12103 2.54844 6.9401 3.17094C6.89791 3.31469 6.7676 3.44312 6.62916 3.5C5.58572 3.92969 4.32072 4.81 4.32072 7.29219C4.31916 10 3.7526 10.5 2.9501 11.4822C2.6176 11.8891 2.90885 12.5 3.49041 12.5H13.1429C13.7213 12.5 14.0107 11.8872 13.6801 11.4822Z" stroke="black" stroke-width="1.2" stroke-linecap="round" stroke-linejoin="round"/>
</svg>
