<svg width="59" height="19" viewBox="0 0 59 19" fill="none" xmlns="http://www.w3.org/2000/svg">
<g clip-path="url(#clip0_79_976)">
<path fill-rule="evenodd" clip-rule="evenodd" d="M5.11899 5.16167C5.03231 5.26613 5.03882 5.33336 5.15282 5.50731C5.30378 5.73766 5.55173 5.83023 6.06066 5.84619C6.31859 5.85435 6.38175 5.892 6.40439 6.05137C6.41957 6.15869 6.46842 6.24979 6.51284 6.25378C7.13784 6.30983 7.4611 6.23435 7.4611 6.03237C7.4611 5.95932 7.50995 5.89452 7.56955 5.88836C8.45179 5.79726 8.7446 5.89287 8.63555 6.23643C8.54029 6.53661 8.24774 6.59361 6.80209 6.59361C5.6863 6.59361 5.45179 6.61565 5.41006 6.72444C5.33952 6.90811 5.60145 7.27492 5.84706 7.33652L6.05285 7.38814L5.87742 8.02494C5.78086 8.3751 5.72568 8.72343 5.75457 8.79891C5.79882 8.91421 5.98613 8.93608 6.92789 8.93608C7.98226 8.93608 8.07561 8.92194 8.50402 8.69749C9.21613 8.32443 9.52074 7.52539 9.10812 7.11277L8.93313 6.93778L9.23704 6.671C9.4234 6.50737 9.57756 6.26792 9.63578 6.05172C9.71785 5.74694 9.70814 5.66886 9.56377 5.47409C9.28614 5.09938 8.95265 5.04221 7.01621 5.03683C5.52978 5.03284 5.20843 5.05392 5.11899 5.16167ZM10.7066 5.1163C10.6069 5.15664 10.4814 5.30057 10.4279 5.43617C10.2077 5.99368 9.53445 8.52589 9.55961 8.70226C9.58589 8.88697 9.62441 8.89339 10.8351 8.91682C11.9058 8.93755 12.1066 8.9202 12.2449 8.79492C12.4422 8.61646 12.456 8.27967 12.2691 8.20792C12.1936 8.17894 11.8032 8.15526 11.4015 8.15526C10.9998 8.15526 10.6711 8.13053 10.6711 8.10025C10.6711 8.06997 10.7163 7.89429 10.7716 7.70984L10.8722 7.37443H11.6392C12.2983 7.37443 12.4315 7.34927 12.5851 7.19563C12.6848 7.09594 12.752 6.93266 12.7369 6.8269C12.7117 6.64922 12.658 6.63534 11.9027 6.612C11.0197 6.58468 11.0815 6.63491 11.2409 6.07306C11.2976 5.87309 11.2581 5.88124 12.2643 5.86268C12.909 5.8507 13.0527 5.82181 13.1536 5.68387C13.3223 5.45309 13.3032 5.22735 13.1061 5.12176C12.9069 5.01522 10.9677 5.0108 10.7066 5.1163ZM14.0826 5.12966C13.9786 5.18293 13.8527 5.32911 13.8029 5.45457C13.5945 5.97884 12.9192 8.53482 12.9437 8.70634C12.969 8.88402 13.0206 8.89383 14.0547 8.91751C15.3123 8.94631 15.7147 8.83978 16.1286 8.36833C16.4895 7.95727 16.5609 7.52105 16.3204 7.19589L16.1348 6.9449L16.4441 6.66076C16.9628 6.18429 16.9971 5.5487 16.5207 5.23654C16.2368 5.05045 14.395 4.96976 14.0826 5.12966ZM19.2012 5.16271C18.8899 5.29363 16.4882 8.36608 16.4857 8.63676C16.4835 8.85964 16.6414 9.02284 16.8592 9.02284C16.951 9.02284 17.2152 8.82763 17.4464 8.58905L17.8667 8.15526L18.5851 8.15656C18.9803 8.15734 19.3488 8.18666 19.404 8.22189C19.4593 8.25702 19.5326 8.43522 19.5668 8.61785C19.6011 8.80047 19.6829 8.97052 19.7485 8.99577C19.9523 9.07394 20.293 8.94267 20.4304 8.73289C20.5503 8.54992 20.5354 8.40095 20.2591 7.02081C20.0926 6.18941 19.9202 5.42672 19.8759 5.32599C19.7713 5.08793 19.5224 5.02772 19.2012 5.16271ZM23.1209 5.08636C22.592 5.21954 22.3383 5.33718 22.0679 5.57455C21.69 5.9064 21.5159 6.23912 21.5159 6.62927C21.5159 7.02697 21.7658 7.25679 22.3818 7.42588C23.0723 7.61536 23.2511 7.70151 23.2511 7.84483C23.2511 8.23837 22.3494 8.36694 21.7214 8.06294C21.3043 7.86106 21.043 7.92786 20.914 8.26934C20.7315 8.75215 21.3957 9.06717 22.4655 9.00522C23.0378 8.97208 23.228 8.92133 23.5639 8.71207C24.0288 8.42238 24.2922 7.99683 24.2922 7.53528C24.2922 7.1237 23.957 6.82803 23.3212 6.67881C22.5303 6.49315 22.3878 6.33984 22.7237 6.03593C22.9359 5.84376 23.5719 5.83665 23.9312 6.02248C24.3048 6.21569 24.5262 6.19366 24.6878 5.94718C24.8748 5.66166 24.7837 5.4262 24.4191 5.25311C24.1005 5.10198 23.4107 5.01331 23.1209 5.08636ZM26.459 5.18978C26.2203 5.38299 26.2634 5.66764 26.5902 6.05597C26.9859 6.52629 27.2567 6.59361 28.7516 6.59361C29.496 6.59361 30.1043 6.60333 30.1036 6.6153C30.1029 6.62727 30.0297 6.86976 29.941 7.15424C29.7515 7.76111 29.641 7.81603 28.6833 7.77838C27.7906 7.74333 27.5812 8.03588 28.0337 8.68604C28.2473 8.9929 28.5733 9.19505 28.9705 9.2668L29.3006 9.32649L28.8377 10.9315C28.3309 12.6892 28.2846 13.0898 28.5398 13.5083C28.8961 14.0927 28.0906 14.0548 40.1428 14.0545C50.8079 14.0542 51.0633 14.0503 51.3343 13.8851C51.4867 13.7921 51.6683 13.6263 51.7378 13.5167C51.8073 13.4071 52.3042 11.7286 52.8421 9.78665C53.7682 6.44352 53.8146 6.23738 53.7154 5.90649C53.6478 5.68057 53.4991 5.47192 53.295 5.31619L52.9792 5.07535L39.8178 5.05253C27.1386 5.03058 26.6493 5.03561 26.459 5.18978ZM14.9073 5.88237C14.7378 5.90241 14.6503 5.98188 14.5819 6.17787C14.5306 6.32536 14.4885 6.47918 14.4885 6.51978C14.4885 6.65131 15.3933 6.60133 15.597 6.45853C15.833 6.29334 15.8613 5.90293 15.638 5.89235C15.5545 5.88836 15.4081 5.87829 15.3127 5.87005C15.2173 5.86172 15.0348 5.86727 14.9073 5.88237ZM18.7563 6.79845C18.5563 7.06341 18.3926 7.31422 18.3926 7.35587C18.3926 7.39742 18.6103 7.4284 18.8764 7.42467L19.36 7.41781L19.3031 7.03764C19.1891 6.27729 19.1595 6.26436 18.7563 6.79845ZM31.9347 7.19389C31.8197 7.22391 31.6557 7.34511 31.5703 7.46327C31.3241 7.80371 30.2387 11.6299 30.3419 11.7936C30.412 11.905 30.6617 11.9335 31.7388 11.9532C32.9694 11.9756 33.0614 11.9659 33.2311 11.7962C33.3558 11.6716 33.4036 11.5293 33.3852 11.3385L33.3584 11.0616L32.4691 11.0369C31.98 11.0233 31.5798 10.9751 31.5798 10.9297C31.5798 10.8844 31.6261 10.6744 31.6825 10.4632L31.7853 10.0792L32.6279 10.0499C33.5395 10.0181 33.7781 9.9115 33.8567 9.50044C33.9272 9.13154 33.807 9.06899 32.9402 9.02284L32.1248 8.97946L32.2453 8.56736L32.3659 8.15526H33.2348C34.0477 8.15526 34.1178 8.1412 34.3222 7.93671C34.6461 7.61284 34.5826 7.27119 34.1826 7.18504C33.8269 7.10852 32.2383 7.11468 31.9347 7.19389ZM35.4284 7.24083C35.329 7.31049 35.2 7.48245 35.1418 7.62299C35.0461 7.85403 35.0712 7.95858 35.4048 8.71632L35.7737 9.55414L34.8914 10.4395C34.1613 11.1721 34.009 11.3703 34.009 11.588C34.009 11.8872 34.1435 12.0594 34.3773 12.0594C34.4654 12.0594 34.9069 11.7019 35.3586 11.2649C35.8102 10.828 36.1916 10.4864 36.206 10.5058C36.2205 10.5252 36.3417 10.7949 36.4753 11.105C36.8097 11.8811 36.934 12.0594 37.141 12.0594C37.3765 12.0594 37.8264 11.6023 37.8264 11.363C37.8264 11.2591 37.6702 10.8408 37.4794 10.4334C37.2885 10.0261 37.1323 9.65339 37.1323 9.60507C37.1323 9.55674 37.5233 9.14247 38.0012 8.68439C38.7322 7.98382 38.8698 7.80961 38.8688 7.58699C38.8673 7.2829 38.7327 7.11416 38.4914 7.11416C38.3967 7.11416 37.971 7.45989 37.5139 7.90817C36.7303 8.67667 36.7017 8.6955 36.6223 8.49378C36.3851 7.89047 36.0624 7.23675 35.9744 7.18053C35.8186 7.08128 35.6259 7.10253 35.4284 7.24083ZM39.6763 7.17836C39.4444 7.21888 39.3166 7.36541 39.2202 7.70142C39.1071 8.096 39.2201 8.18892 39.8158 8.19091C40.1412 8.19204 40.3424 8.22926 40.3424 8.28852C40.3424 8.34126 40.1427 9.06483 39.8985 9.89649C39.6544 10.7282 39.4543 11.5032 39.4539 11.6188C39.4523 12.0483 40.0039 12.1657 40.3642 11.8127C40.4485 11.7302 40.7341 10.9105 41.0049 9.97457C41.2736 9.04557 41.5075 8.26934 41.5247 8.24973C41.5419 8.23013 41.8174 8.20566 42.1371 8.19534C42.6254 8.17946 42.7438 8.14476 42.8794 7.97731C42.977 7.85681 43.0303 7.67505 43.0145 7.51698C42.994 7.31015 42.9344 7.24083 42.7282 7.18426C42.4776 7.11537 40.0635 7.11078 39.6763 7.17836ZM44.0129 7.20135C43.9084 7.24369 43.7648 7.36827 43.6939 7.4782C43.5026 7.77482 42.4143 11.6301 42.4712 11.8095C42.5948 12.1989 43.2801 12.0558 43.4944 11.5959C43.5647 11.4452 43.6902 11.0759 43.7735 10.7752L43.9249 10.2285L44.2348 10.2546C44.5442 10.2808 44.5451 10.282 44.7824 11.0484C44.913 11.4705 45.0655 11.8707 45.121 11.9376C45.3411 12.2029 45.9154 11.9847 46.0704 11.5769C46.1574 11.348 45.9045 10.4877 45.676 10.2352C45.5572 10.104 45.5799 10.0689 45.9231 9.85189C46.9117 9.22706 47.2393 7.71565 46.4733 7.31414C46.1617 7.15086 44.3437 7.06748 44.0129 7.20135ZM49.5998 7.28924C49.4774 7.38554 48.7498 8.34595 47.9831 9.42357C46.5634 11.4187 46.3909 11.7664 46.7273 11.9546C46.9992 12.1068 47.2889 11.9573 47.6383 11.4842L47.9825 11.0183H48.9183H49.8541L49.935 11.4735C49.9943 11.8073 50.0582 11.9366 50.1746 11.9584C50.4685 12.0132 50.7493 11.8849 50.8775 11.6372C50.9905 11.4185 50.9867 11.2515 50.8432 10.1418C50.4566 7.15181 50.4464 7.11416 50.0214 7.11416C49.912 7.11416 49.7222 7.19294 49.5998 7.28924ZM6.98923 7.61302C6.95791 7.74428 6.91201 7.91988 6.8872 8.00343C6.84746 8.13721 6.90993 8.15526 7.41191 8.15526C8.02399 8.15526 8.32868 7.98538 8.32868 7.64399C8.32868 7.43074 8.16601 7.37443 7.5502 7.37443C7.07191 7.37443 7.04319 7.38667 6.98923 7.61302ZM14.1552 7.70984C14.0999 7.89429 14.0547 8.06997 14.0547 8.10025C14.0547 8.13053 14.3085 8.15526 14.6186 8.15526C15.2246 8.15526 15.5296 7.98408 15.5296 7.64399C15.5296 7.43109 15.3668 7.37443 14.7555 7.37443H14.2557L14.1552 7.70984ZM44.3766 8.64518C44.2083 9.22411 44.2415 9.26315 44.8698 9.22481C45.4175 9.19141 45.688 9.02526 45.7649 8.6752C45.8545 8.26726 45.704 8.15526 45.0663 8.15526H44.5191L44.3766 8.64518ZM49.1214 9.30202C48.8737 9.6691 48.6711 9.99062 48.6711 10.0166C48.6711 10.0427 48.9231 10.0639 49.231 10.0639H49.7908L49.7425 9.60845C49.7159 9.35789 49.6666 9.03637 49.6329 8.89391C49.572 8.63589 49.5697 8.63772 49.1214 9.30202ZM5.09617 10.1153C4.97757 10.234 5.03023 10.4172 5.24487 10.6318C5.45005 10.837 5.50063 10.8448 6.6369 10.8448C7.77317 10.8448 7.82375 10.8525 8.02893 11.0577C8.5074 11.5361 8.08854 12.8 7.33201 13.1608C6.94958 13.3432 6.48612 13.256 6.33481 12.9733C6.19183 12.7061 6.26818 12.0932 6.50139 11.6361C6.59569 11.4512 6.64853 11.2757 6.61868 11.2459C6.58893 11.2162 6.36414 11.1918 6.11922 11.1918C5.67406 11.1918 5.67363 11.192 5.47148 11.6039C5.34811 11.8553 5.25346 12.2359 5.22891 12.5799C5.19394 13.0688 5.21589 13.1843 5.39392 13.4475C5.71189 13.9176 6.08842 14.0721 6.81623 14.0309C7.51455 13.9913 8.18414 13.6867 8.56666 13.2346C9.17865 12.5111 9.45688 11.233 9.11888 10.6972C8.78781 10.1723 8.55252 10.1105 6.76626 10.0791C5.88315 10.0637 5.13156 10.0799 5.09617 10.1153ZM10.538 10.1465C10.4409 10.1858 10.3184 10.2712 10.2656 10.3362C10.213 10.4012 9.96294 11.1898 9.71004 12.0887C9.23392 13.781 9.22186 13.9702 9.58572 14.0417C9.81624 14.087 10.1279 13.8874 10.2269 13.6311C10.2751 13.5062 10.3991 13.0918 10.5024 12.7101C10.6058 12.3283 10.7118 11.9803 10.738 11.9367C10.7642 11.8931 11.0185 12.3226 11.3031 12.891C11.5877 13.4596 11.8644 13.9534 11.9182 13.9884C12.1033 14.1092 12.3766 14.0543 12.5591 13.8596C12.7349 13.6721 13.6209 10.7839 13.6209 10.3982C13.6209 10.2161 13.3252 10.0668 13.0875 10.1289C12.8195 10.199 12.6847 10.4412 12.4473 11.2785C12.3188 11.7319 12.188 12.1308 12.1567 12.1649C12.1254 12.1991 11.8905 11.8136 11.6349 11.3081C11.1979 10.4443 10.9302 10.0567 10.7796 10.0694C10.7439 10.0724 10.6351 10.1071 10.538 10.1465ZM15.573 10.18C15.0058 10.368 14.7111 10.5525 14.3637 10.937C13.7138 11.6564 13.4459 12.7557 13.7732 13.3607C14.1031 13.9707 15.0101 14.2016 16.1319 13.961C16.6869 13.842 16.8334 13.6558 17.0802 12.7552C17.3279 11.8515 17.293 11.7991 16.4434 11.7991C15.935 11.7991 15.7882 11.8306 15.6655 11.9662C15.4233 12.2338 15.5217 12.4454 15.9032 12.4769C16.2561 12.5061 16.2557 12.5043 16.0367 13.0894C15.9656 13.2793 15.9225 13.2921 15.48 13.2554C14.8623 13.2041 14.7031 13.0499 14.7128 12.5116C14.7227 11.959 15.0765 11.2762 15.4599 11.0697C15.7912 10.8913 16.4183 10.9097 16.8982 11.1118C17.2681 11.2675 17.4729 11.1454 17.5073 10.7485C17.5293 10.4962 17.4929 10.4294 17.2588 10.2911C16.9097 10.0849 16.0341 10.0272 15.573 10.18ZM18.7213 10.1993C18.4693 10.3353 18.4578 10.3664 17.8309 12.6032C17.4863 13.833 17.5039 14.0548 17.9455 14.0548C18.2934 14.0548 18.5425 13.7753 18.7006 13.2073C18.9865 12.1801 18.9002 12.1888 19.5509 13.1221C19.8716 13.582 20.2153 13.9841 20.3148 14.0157C20.5531 14.0913 20.9438 13.801 20.9776 13.5231C20.9947 13.3817 20.8541 13.1 20.5504 12.6676L20.0976 12.0228L20.438 11.7447C20.6252 11.5917 20.9932 11.295 21.2556 11.0853C21.6394 10.7788 21.7328 10.6542 21.7328 10.4491C21.7328 10.2251 21.6987 10.1908 21.4527 10.167C21.2156 10.1441 21.0425 10.2427 20.3249 10.8089C19.8586 11.1768 19.4031 11.5404 19.3127 11.6167C19.1279 11.7729 19.1232 11.8561 19.3567 10.8235C19.428 10.508 19.4389 10.2967 19.3864 10.2477C19.2224 10.0944 18.9522 10.0747 18.7213 10.1993ZM22.5943 10.2663C22.4251 10.4136 22.2852 10.7837 21.949 11.9726C21.4494 13.739 21.4273 13.9425 21.7265 14.0176C22.0121 14.0892 22.2768 13.9935 22.4214 13.7662C22.5997 13.486 23.4302 10.4398 23.3706 10.2845C23.3423 10.2109 23.2747 10.1477 23.2201 10.144C23.1655 10.1404 23.051 10.1241 22.9656 10.1078C22.8802 10.0916 22.7131 10.1628 22.5943 10.2663ZM24.3518 10.3062C24.1847 10.491 23.3378 13.3483 23.3378 13.7277C23.3378 13.9124 23.3891 13.9776 23.5704 14.0231C23.9812 14.1262 24.2206 13.9055 24.4317 13.2289C24.6152 12.6415 24.6294 12.6233 24.9041 12.6233C25.1727 12.6233 25.2008 12.6549 25.4433 13.2306C25.584 13.5646 25.7403 13.8887 25.7907 13.9508C25.937 14.131 26.3808 14.038 26.5664 13.7882C26.7258 13.5738 26.7264 13.55 26.5835 13.1809C26.5016 12.9696 26.3558 12.709 26.2593 12.6016C26.1088 12.4342 26.1041 12.4064 26.2261 12.4064C26.419 12.4064 26.9592 11.9206 27.1269 11.5963C27.3215 11.2201 27.292 10.596 27.0691 10.3728C26.9093 10.2128 26.7654 10.1911 25.6972 10.1661C24.6069 10.1406 24.4907 10.1528 24.3518 10.3062ZM24.9947 11.2047C24.8163 11.7164 24.8566 11.7991 25.2842 11.7991C25.7968 11.7991 26.0952 11.6753 26.2146 11.413C26.3706 11.0707 26.1904 10.9315 25.5914 10.9315C25.107 10.9315 25.0867 10.9408 24.9947 11.2047Z" fill="#108A50"/>
<path fill-rule="evenodd" clip-rule="evenodd" d="M0 9.50009V19.0003L29.3893 18.9784L58.7785 18.9566L58.8006 9.47831L58.8227 0H29.4113H0V9.50009ZM0.0419041 9.54338C0.0419041 14.7684 0.0523151 16.9058 0.0650685 14.2934C0.0778219 11.6808 0.0778219 7.40584 0.0650685 4.79338C0.0523151 2.18084 0.0419041 4.31838 0.0419041 9.54338ZM5.11907 5.16167C5.0324 5.26612 5.0389 5.33336 5.1529 5.50731C5.30386 5.73765 5.55182 5.83022 6.06074 5.84619C6.31867 5.85434 6.38183 5.892 6.40447 6.05137C6.41966 6.15869 6.4685 6.24978 6.51292 6.25378C7.13793 6.30982 7.46119 6.23434 7.46119 6.03237C7.46119 5.95932 7.51003 5.89451 7.56963 5.88835C8.45187 5.79726 8.74468 5.89286 8.63563 6.23642C8.54037 6.53661 8.24782 6.59361 6.80217 6.59361C5.68638 6.59361 5.45187 6.61564 5.41014 6.72444C5.33961 6.9081 5.60153 7.27492 5.84714 7.33652L6.05293 7.38814L5.87751 8.02494C5.78094 8.3751 5.72577 8.72343 5.75466 8.79891C5.7989 8.91421 5.98621 8.93607 6.92797 8.93607C7.98234 8.93607 8.07569 8.92193 8.5041 8.69749C9.21621 8.32443 9.52082 7.52539 9.1082 7.11277L8.93321 6.93778L9.23712 6.671C9.42348 6.50737 9.57765 6.26792 9.63586 6.05172C9.71793 5.74694 9.70822 5.66885 9.56385 5.47408C9.28623 5.09937 8.95273 5.0422 7.01629 5.03682C5.52987 5.03283 5.20852 5.05391 5.11907 5.16167ZM10.7067 5.11629C10.6069 5.15663 10.4815 5.30057 10.428 5.43617C10.2078 5.99368 9.53453 8.52588 9.55969 8.70226C9.58598 8.88697 9.6245 8.89339 10.8352 8.91681C11.9059 8.93755 12.1066 8.9202 12.245 8.79492C12.4423 8.61646 12.4561 8.27966 12.2691 8.20791C12.1937 8.17894 11.8032 8.15525 11.4016 8.15525C10.9999 8.15525 10.6712 8.13052 10.6712 8.10025C10.6712 8.06997 10.7164 7.89428 10.7717 7.70984L10.8722 7.37443H11.6393C12.2984 7.37443 12.4316 7.34927 12.5852 7.19562C12.6849 7.09594 12.7521 6.93266 12.737 6.8269C12.7118 6.64922 12.6581 6.63534 11.9028 6.612C11.0198 6.58467 11.0816 6.6349 11.241 6.07306C11.2977 5.87308 11.2581 5.88124 12.2644 5.86267C12.9091 5.8507 13.0528 5.82181 13.1536 5.68386C13.3224 5.45309 13.3033 5.22734 13.1062 5.12176C12.907 5.01522 10.9678 5.01079 10.7067 5.11629ZM14.0826 5.12965C13.9787 5.18292 13.8528 5.32911 13.803 5.45456C13.5946 5.97884 12.9193 8.53482 12.9438 8.70634C12.9691 8.88402 13.0206 8.89382 14.0548 8.91751C15.3123 8.94631 15.7147 8.83977 16.1287 8.36833C16.4896 7.95727 16.561 7.52105 16.3205 7.19588L16.1349 6.94489L16.4442 6.66076C16.9629 6.18428 16.9972 5.54869 16.5208 5.23654C16.2368 5.05044 14.3951 4.96976 14.0826 5.12965ZM19.2013 5.16271C18.89 5.29363 16.4883 8.36607 16.4858 8.63676C16.4836 8.85964 16.6415 9.02283 16.8592 9.02283C16.951 9.02283 17.2153 8.82763 17.4465 8.58904L17.8668 8.15525L18.5852 8.15655C18.9804 8.15733 19.3489 8.18666 19.4041 8.22188C19.4594 8.25702 19.5327 8.43522 19.5669 8.61784C19.6011 8.80047 19.683 8.97052 19.7486 8.99576C19.9524 9.07393 20.293 8.94267 20.4305 8.73289C20.5504 8.54991 20.5354 8.40095 20.2592 7.0208C20.0927 6.1894 19.9203 5.42671 19.876 5.32599C19.7714 5.08792 19.5225 5.02771 19.2013 5.16271ZM23.121 5.08636C22.5921 5.21953 22.3384 5.33718 22.068 5.57455C21.6901 5.9064 21.516 6.23911 21.516 6.62926C21.516 7.02696 21.7658 7.25679 22.3819 7.42588C23.0724 7.61536 23.2511 7.70151 23.2511 7.84483C23.2511 8.23837 22.3495 8.36694 21.7215 8.06294C21.3044 7.86105 21.0431 7.92786 20.9141 8.26934C20.7316 8.75215 21.3958 9.06716 22.4655 9.00522C23.0379 8.97208 23.2281 8.92132 23.564 8.71206C24.0288 8.42238 24.2922 7.99683 24.2922 7.53528C24.2922 7.1237 23.9571 6.82803 23.3212 6.6788C22.5304 6.49314 22.3879 6.33984 22.7237 6.03593C22.936 5.84376 23.572 5.83664 23.9312 6.02248C24.3049 6.21569 24.5263 6.19365 24.6878 5.94717C24.8749 5.66165 24.7838 5.42619 24.4192 5.25311C24.1006 5.10198 23.4108 5.01331 23.121 5.08636ZM26.4591 5.18978C26.2204 5.38299 26.2635 5.66764 26.5903 6.05597C26.986 6.52628 27.2568 6.59361 28.7517 6.59361C29.4961 6.59361 30.1044 6.60332 30.1037 6.6153C30.103 6.62727 30.0298 6.86976 29.941 7.15424C29.7516 7.76111 29.641 7.81603 28.6834 7.77837C27.7907 7.74332 27.5813 8.03587 28.0338 8.68604C28.2474 8.9929 28.5734 9.19505 28.9706 9.26679L29.3007 9.32648L28.8378 10.9315C28.331 12.6892 28.2847 13.0898 28.5399 13.5083C28.8962 14.0927 28.0907 14.0548 40.1429 14.0544C50.808 14.0542 51.0634 14.0503 51.3343 13.8851C51.4868 13.7921 51.6684 13.6263 51.7379 13.5167C51.8074 13.4071 52.3043 11.7286 52.8422 9.78665C53.7683 6.44352 53.8147 6.23738 53.7155 5.90648C53.6478 5.68057 53.4992 5.47191 53.2951 5.31618L52.9793 5.07534L39.8179 5.05253C27.1387 5.03058 26.6494 5.03561 26.4591 5.18978ZM14.9074 5.88237C14.7379 5.90241 14.6504 5.98188 14.582 6.17786C14.5307 6.32535 14.4886 6.47917 14.4886 6.51978C14.4886 6.6513 15.3934 6.60133 15.5971 6.45853C15.8331 6.29334 15.8614 5.90293 15.6381 5.89234C15.5546 5.88835 15.4082 5.87829 15.3128 5.87005C15.2173 5.86172 15.0349 5.86727 14.9074 5.88237ZM18.7564 6.79844C18.5564 7.0634 18.3927 7.31422 18.3927 7.35586C18.3927 7.39742 18.6104 7.42839 18.8765 7.42466L19.3601 7.41781L19.3032 7.03763C19.1892 6.27729 19.1596 6.26436 18.7564 6.79844ZM31.9347 7.19389C31.8198 7.2239 31.6558 7.34511 31.5704 7.46327C31.3242 7.80371 30.2388 11.6299 30.342 11.7936C30.4121 11.905 30.6617 11.9335 31.7388 11.9532C32.9695 11.9756 33.0615 11.9659 33.2312 11.7962C33.3558 11.6716 33.4037 11.5293 33.3852 11.3385L33.3584 11.0616L32.4692 11.0369C31.9801 11.0233 31.5799 10.9751 31.5799 10.9297C31.5799 10.8844 31.6261 10.6744 31.6826 10.4632L31.7853 10.0792L32.628 10.0499C33.5396 10.0181 33.7782 9.91149 33.8568 9.50043C33.9273 9.13154 33.8071 9.06899 32.9403 9.02283L32.1249 8.97945L32.2454 8.56735L32.366 8.15525H33.2349C34.0478 8.15525 34.1178 8.1412 34.3223 7.93671C34.6462 7.61284 34.5827 7.27119 34.1826 7.18504C33.8269 7.10852 32.2384 7.11468 31.9347 7.19389ZM35.4285 7.24082C35.3291 7.31049 35.2001 7.48244 35.1418 7.62299C35.0461 7.85403 35.0713 7.95857 35.4049 8.71632L35.7738 9.55414L34.8915 10.4395C34.1614 11.1721 34.0091 11.3703 34.0091 11.588C34.0091 11.8872 34.1436 12.0594 34.3774 12.0594C34.4655 12.0594 34.907 11.7019 35.3586 11.2649C35.8103 10.828 36.1917 10.4864 36.2061 10.5058C36.2206 10.5252 36.3418 10.7949 36.4754 11.105C36.8098 11.8811 36.9341 12.0594 37.1411 12.0594C37.3765 12.0594 37.8265 11.6023 37.8265 11.363C37.8265 11.2591 37.6703 10.8408 37.4794 10.4334C37.2886 10.0261 37.1324 9.65339 37.1324 9.60506C37.1324 9.55674 37.5234 9.14247 38.0013 8.68439C38.7322 7.98382 38.8699 7.80961 38.8689 7.58699C38.8674 7.2829 38.7327 7.11415 38.4915 7.11415C38.3967 7.11415 37.9711 7.45989 37.514 7.90816C36.7304 8.67667 36.7017 8.69549 36.6224 8.49378C36.3852 7.89047 36.0625 7.23674 35.9745 7.18052C35.8186 7.08127 35.6259 7.10253 35.4285 7.24082ZM39.6764 7.17836C39.4445 7.21887 39.3167 7.36541 39.2203 7.70142C39.1072 8.09599 39.2202 8.18891 39.8158 8.19091C40.1413 8.19204 40.3425 8.22926 40.3425 8.28851C40.3425 8.34126 40.1427 9.06482 39.8986 9.89648C39.6545 10.7282 39.4544 11.5032 39.454 11.6188C39.4524 12.0483 40.004 12.1657 40.3643 11.8127C40.4486 11.7302 40.7342 10.9105 41.0049 9.97457C41.2737 9.04556 41.5076 8.26934 41.5248 8.24973C41.542 8.23012 41.8175 8.20566 42.1371 8.19533C42.6255 8.17946 42.7439 8.14475 42.8794 7.97731C42.977 7.8568 43.0304 7.67505 43.0146 7.51697C42.994 7.31014 42.9344 7.24082 42.7283 7.18426C42.4777 7.11537 40.0636 7.11077 39.6764 7.17836ZM44.013 7.20135C43.9085 7.24368 43.7649 7.36827 43.694 7.47819C43.5027 7.77482 42.4144 11.6301 42.4713 11.8095C42.5949 12.1989 43.2802 12.0558 43.4945 11.5959C43.5647 11.4452 43.6903 11.0759 43.7736 10.7752L43.925 10.2285L44.2349 10.2546C44.5443 10.2808 44.5452 10.2819 44.7825 11.0484C44.9131 11.4704 45.0656 11.8707 45.1211 11.9376C45.3412 12.2029 45.9154 11.9847 46.0705 11.5769C46.1575 11.348 45.9046 10.4877 45.6761 10.2352C45.5573 10.104 45.58 10.0689 45.9232 9.85189C46.9118 9.22706 47.2394 7.71565 46.4734 7.31413C46.1617 7.15085 44.3438 7.06748 44.013 7.20135ZM49.5999 7.28923C49.4775 7.38553 48.7499 8.34595 47.9831 9.42357C46.5634 11.4187 46.391 11.7664 46.7274 11.9546C46.9993 12.1068 47.289 11.9572 47.6384 11.4842L47.9826 11.0183H48.9184H49.8542L49.9351 11.4735C49.9944 11.8073 50.0583 11.9366 50.1746 11.9584C50.4686 12.0132 50.7494 11.8849 50.8776 11.6372C50.9906 11.4185 50.9868 11.2515 50.8433 10.1418C50.4567 7.15181 50.4465 7.11415 50.0214 7.11415C49.912 7.11415 49.7223 7.19293 49.5999 7.28923ZM6.98931 7.61301C6.95799 7.74428 6.91209 7.91988 6.88728 8.00342C6.84755 8.13721 6.91001 8.15525 7.41199 8.15525C8.02407 8.15525 8.32877 7.98538 8.32877 7.64399C8.32877 7.43074 8.16609 7.37443 7.55029 7.37443C7.07199 7.37443 7.04327 7.38666 6.98931 7.61301ZM14.1553 7.70984C14.1 7.89428 14.0548 8.06997 14.0548 8.10025C14.0548 8.13052 14.3086 8.15525 14.6187 8.15525C15.2247 8.15525 15.5297 7.98408 15.5297 7.64399C15.5297 7.43108 15.3669 7.37443 14.7555 7.37443H14.2558L14.1553 7.70984ZM44.3767 8.64517C44.2084 9.22411 44.2416 9.26315 44.8698 9.2248C45.4175 9.1914 45.688 9.02526 45.765 8.67519C45.8545 8.26725 45.7041 8.15525 45.0663 8.15525H44.5192L44.3767 8.64517ZM49.1215 9.30202C48.8738 9.66909 48.6712 9.99062 48.6712 10.0166C48.6712 10.0427 48.9232 10.0639 49.2311 10.0639H49.7909L49.7426 9.60845C49.716 9.35789 49.6667 9.03636 49.633 8.89391C49.572 8.63589 49.5698 8.63771 49.1215 9.30202ZM5.09625 10.1153C4.97765 10.234 5.03031 10.4172 5.24495 10.6318C5.45014 10.837 5.50072 10.8447 6.63698 10.8447C7.77325 10.8447 7.82383 10.8525 8.02902 11.0577C8.50749 11.5361 8.08862 12.8 7.33209 13.1608C6.94966 13.3432 6.4862 13.256 6.33489 12.9733C6.19192 12.7061 6.26826 12.0932 6.50147 11.6361C6.59578 11.4512 6.64861 11.2757 6.61877 11.2459C6.58901 11.2162 6.36422 11.1918 6.1193 11.1918C5.67414 11.1918 5.67371 11.192 5.47157 11.6039C5.3482 11.8553 5.25354 12.2359 5.22899 12.5799C5.19403 13.0688 5.21598 13.1843 5.394 13.4475C5.71197 13.9176 6.0885 14.0721 6.81631 14.0308C7.51463 13.9913 8.18423 13.6867 8.56674 13.2346C9.17873 12.5111 9.45697 11.233 9.11896 10.6972C8.78789 10.1723 8.5526 10.1105 6.76634 10.0791C5.88323 10.0637 5.13165 10.0799 5.09625 10.1153ZM10.5381 10.1465C10.441 10.1858 10.3185 10.2712 10.2657 10.3362C10.2131 10.4012 9.96303 11.1898 9.71013 12.0887C9.234 13.781 9.22194 13.9702 9.5858 14.0417C9.81632 14.087 10.128 13.8874 10.2269 13.6311C10.2752 13.5062 10.3992 13.0918 10.5025 12.71C10.6059 12.3283 10.7118 11.9803 10.7381 11.9367C10.7643 11.8931 11.0186 12.3226 11.3032 12.891C11.5877 13.4595 11.8645 13.9534 11.9183 13.9884C12.1034 14.1092 12.3766 14.0543 12.5592 13.8596C12.735 13.6721 13.621 10.7839 13.621 10.3982C13.621 10.2161 13.3252 10.0668 13.0876 10.1289C12.8196 10.199 12.6848 10.4412 12.4473 11.2785C12.3189 11.7318 12.1881 12.1308 12.1568 12.1649C12.1255 12.1991 11.8906 11.8136 11.6349 11.3081C11.1979 10.4443 10.9303 10.0567 10.7797 10.0694C10.7439 10.0724 10.6351 10.1071 10.5381 10.1465ZM15.5731 10.18C15.0059 10.368 14.7112 10.5525 14.3638 10.937C13.7139 11.6564 13.446 12.7557 13.7733 13.3607C14.1032 13.9707 15.0102 14.2016 16.132 13.961C16.687 13.842 16.8335 13.6558 17.0803 12.7552C17.328 11.8515 17.293 11.7991 16.4435 11.7991C15.9351 11.7991 15.7883 11.8306 15.6656 11.9662C15.4234 12.2338 15.5218 12.4454 15.9033 12.4769C16.2562 12.5061 16.2558 12.5043 16.0368 13.0894C15.9656 13.2793 15.9226 13.2921 15.4801 13.2554C14.8623 13.2041 14.7031 13.0499 14.7129 12.5116C14.7228 11.959 15.0766 11.2762 15.46 11.0697C15.7913 10.8913 16.4183 10.9097 16.8983 11.1118C17.2681 11.2675 17.473 11.1454 17.5074 10.7485C17.5294 10.4962 17.493 10.4294 17.2589 10.2911C16.9098 10.0849 16.0342 10.0272 15.5731 10.18ZM18.7214 10.1993C18.4694 10.3353 18.4578 10.3664 17.831 12.6032C17.4864 13.833 17.5039 14.0548 17.9456 14.0548C18.2935 14.0548 18.5426 13.7753 18.7007 13.2073C18.9865 12.1801 18.9003 12.1888 19.551 13.1221C19.8717 13.582 20.2154 13.9841 20.3149 14.0157C20.5532 14.0913 20.9439 13.801 20.9776 13.5231C20.9948 13.3817 20.8542 13.1 20.5504 12.6676L20.0977 12.0228L20.4381 11.7447C20.6253 11.5917 20.9933 11.295 21.2557 11.0853C21.6394 10.7788 21.7329 10.6542 21.7329 10.4491C21.7329 10.2251 21.6988 10.1908 21.4528 10.167C21.2157 10.1441 21.0426 10.2426 20.325 10.8089C19.8586 11.1768 19.4032 11.5404 19.3128 11.6167C19.128 11.7729 19.1233 11.8561 19.3567 10.8235C19.4281 10.508 19.439 10.2967 19.3865 10.2477C19.2225 10.0944 18.9523 10.0747 18.7214 10.1993ZM22.5944 10.2663C22.4252 10.4136 22.2853 10.7837 21.9491 11.9726C21.4495 13.739 21.4274 13.9425 21.7266 14.0176C22.0121 14.0892 22.2768 13.9935 22.4215 13.7662C22.5998 13.486 23.4303 10.4398 23.3707 10.2845C23.3424 10.2109 23.2747 10.1477 23.2202 10.144C23.1656 10.1404 23.0511 10.1241 22.9657 10.1078C22.8802 10.0916 22.7132 10.1628 22.5944 10.2663ZM24.3519 10.3062C24.1847 10.4909 23.3379 13.3483 23.3379 13.7277C23.3379 13.9124 23.3892 13.9776 23.5705 14.0231C23.9813 14.1262 24.2207 13.9055 24.4318 13.2289C24.6152 12.6415 24.6295 12.6233 24.9042 12.6233C25.1728 12.6233 25.2008 12.6549 25.4433 13.2306C25.5841 13.5646 25.7404 13.8887 25.7908 13.9508C25.9371 14.131 26.3809 14.038 26.5665 13.7882C26.7259 13.5738 26.7265 13.5499 26.5836 13.1809C26.5017 12.9696 26.3559 12.709 26.2594 12.6016C26.1089 12.4342 26.1042 12.4064 26.2262 12.4064C26.4191 12.4064 26.9593 11.9206 27.127 11.5963C27.3216 11.2201 27.2921 10.596 27.0692 10.3728C26.9094 10.2128 26.7654 10.1911 25.6973 10.1661C24.607 10.1406 24.4907 10.1528 24.3519 10.3062ZM24.9948 11.2047C24.8164 11.7164 24.8567 11.7991 25.2843 11.7991C25.7969 11.7991 26.0952 11.6753 26.2147 11.413C26.3707 11.0707 26.1905 10.9315 25.5914 10.9315C25.1071 10.9315 25.0868 10.9408 24.9948 11.2047Z" fill="#F9FBFB"/>
</g>
<defs>
<clipPath id="clip0_79_976">
<rect width="58.7351" height="19" rx="5" fill="white"/>
</clipPath>
</defs>
</svg>
