<svg width="12" height="13" viewBox="0 0 12 13" fill="none" xmlns="http://www.w3.org/2000/svg">
<g clip-path="url(#clip0_67_156)">
<path fill-rule="evenodd" clip-rule="evenodd" d="M5.73051 0.814837C5.49761 0.92272 5.48399 0.946298 5.01906 2.0469C4.86388 2.41428 4.5804 3.0785 4.38911 3.52295L4.04132 4.33105L3.94841 4.34652C3.89732 4.35502 3.77113 4.36888 3.66801 4.37731C3.56488 4.38573 3.44359 4.39684 3.39847 4.40199C3.35336 4.40715 3.24262 4.4176 3.15238 4.42524C2.99017 4.43898 2.82993 4.45351 2.62504 4.47308C2.56703 4.47863 2.44574 4.48932 2.35551 4.49687C2.26527 4.50439 2.15453 4.51477 2.10941 4.51993C2.0643 4.52509 1.94301 4.53584 1.83988 4.54386C1.73676 4.55188 1.62601 4.56212 1.59379 4.56659C1.56156 4.57107 1.44555 4.58159 1.33597 4.58996C0.83842 4.62795 0.464592 4.67302 0.390529 4.70396C0.0614669 4.84147 -0.0971346 5.26456 0.061256 5.58242C0.123201 5.70671 0.353756 5.92039 1.43891 6.85916C1.4661 6.88266 1.55687 6.96268 1.64066 7.03698C1.94915 7.31052 2.61812 7.89723 2.72122 7.98467L2.82747 8.07479L2.78458 8.26592C2.73428 8.49008 2.64137 8.9 2.56593 9.23049C2.53651 9.3594 2.48519 9.58616 2.45186 9.7344C2.41855 9.88264 2.31205 10.3513 2.21519 10.7759C2.11834 11.2006 2.0391 11.5809 2.0391 11.6213C2.0391 12.0316 2.48345 12.3653 2.86178 12.2391C2.94906 12.2099 3.31605 11.996 4.55434 11.2525C5.00315 10.983 5.5128 10.6791 5.68689 10.5771L6.00341 10.3917L7.43727 11.2496C8.2259 11.7215 8.93373 12.1404 9.01023 12.1807C9.33622 12.3523 9.72529 12.2285 9.88876 11.9011C9.97047 11.7376 9.97422 11.589 9.90412 11.293C9.81674 10.9239 9.33505 8.80789 9.21212 8.2531L9.17214 8.07261L9.22384 8.03045C9.25227 8.00727 9.34204 7.9303 9.42332 7.8594C9.72144 7.59936 10.774 6.67604 10.9219 6.54486C11.0057 6.47052 11.1006 6.38703 11.1328 6.35933C11.52 6.02645 11.8243 5.7507 11.8685 5.69267C11.9777 5.54933 12.0235 5.4211 12.0231 5.25929C12.0229 5.15134 12.016 5.11597 12 5.14065C11.9807 5.17053 11.9773 5.16952 11.977 5.13385C11.9764 5.06614 11.8931 4.92364 11.8087 4.84604C11.6471 4.69738 11.5539 4.6647 11.2149 4.63789C11.1118 4.62971 10.9905 4.61884 10.9453 4.61368C10.9002 4.60852 10.7895 4.59807 10.6993 4.59043C10.537 4.5767 10.3768 4.56216 10.1719 4.54259C10.1139 4.53704 9.99262 4.52635 9.90238 4.51881C9.81215 4.51128 9.7014 4.5009 9.65629 4.49574C9.61117 4.49059 9.48988 4.47983 9.38676 4.47181C9.28363 4.4638 9.17289 4.45349 9.14066 4.44891C9.10844 4.44432 8.98715 4.43338 8.87113 4.42459C8.75512 4.41577 8.64437 4.40572 8.62504 4.40223C8.6057 4.39874 8.48969 4.38831 8.36722 4.37905C8.24476 4.36981 8.10294 4.35526 8.05206 4.34673L7.95958 4.33119L7.55758 3.39411C7.33647 2.87874 7.03661 2.17756 6.89122 1.83596C6.57247 1.08695 6.54161 1.0247 6.44158 0.929212C6.26052 0.75636 5.9608 0.708149 5.73051 0.814837ZM0.00791224 5.30471C0.00791224 5.40139 0.0120607 5.44095 0.0170997 5.3926C0.0221622 5.34427 0.0221622 5.26517 0.0170997 5.21682C0.0120607 5.16849 0.00791224 5.20803 0.00791224 5.30471Z" fill="#FCC404"/>
</g>
<defs>
<clipPath id="clip0_67_156">
<rect width="12" height="12" fill="white" transform="translate(0 0.5)"/>
</clipPath>
</defs>
</svg>
