<svg width="17" height="17" viewBox="0 0 17 17" fill="none" xmlns="http://www.w3.org/2000/svg">
<g clip-path="url(#clip0_86_1230)">
<path d="M16.3872 3.92188C15.8245 4.16637 15.2292 4.32744 14.62 4.40001C15.2602 4.02512 15.7417 3.42956 15.9741 2.72501C15.3688 3.07894 14.7077 3.32728 14.0191 3.45938C13.7291 3.15548 13.3804 2.91373 12.9941 2.7488C12.6078 2.58388 12.1919 2.49923 11.7719 2.50001C10.0713 2.50001 8.69502 3.85625 8.69502 5.52813C8.69381 5.76068 8.72046 5.99254 8.77439 6.21876C7.55492 6.16159 6.36081 5.8505 5.26845 5.3054C4.17609 4.76029 3.20955 3.99318 2.43064 3.05313C2.15739 3.51379 2.01287 4.03939 2.01221 4.575C2.01221 5.625 2.56002 6.55313 3.38721 7.09688C2.89712 7.08525 2.41708 6.95554 1.98783 6.71875V6.75625C1.98783 8.225 3.05033 9.44688 4.45658 9.72501C4.19214 9.7955 3.91963 9.83122 3.64596 9.83125C3.45176 9.83159 3.25801 9.81275 3.06752 9.775C3.45846 10.9781 4.59627 11.8531 5.94408 11.8781C4.84889 12.7222 3.50428 13.1784 2.12158 13.175C1.87615 13.1746 1.63095 13.16 1.38721 13.1313C2.79383 14.0294 4.42891 14.5045 6.09783 14.5C11.7653 14.5 14.8616 9.88438 14.8616 5.88125C14.8616 5.75001 14.8581 5.61875 14.8519 5.49063C15.4529 5.06315 15.9728 4.53191 16.3872 3.92188Z" fill="black"/>
</g>
<defs>
<clipPath id="clip0_86_1230">
<rect width="16" height="16" fill="white" transform="translate(0.887207 0.5)"/>
</clipPath>
</defs>
</svg>
