<svg xmlns="http://www.w3.org/2000/svg" width="512" height="512" viewBox="0 0 512 512" version="1.1"><path d="" stroke="none" fill="#080404" fill-rule="evenodd"/><path d="M 40.218 97.663 C 34.726 100.370, 32.500 104.505, 32.500 112 C 32.500 119.462, 34.198 122.555, 40.148 125.939 L 43.797 128.014 257.148 127.757 L 470.500 127.500 473.712 125.090 C 480.300 120.147, 481.924 110.959, 477.534 103.468 C 472.738 95.284, 493.982 95.997, 255.849 96.023 C 62.284 96.044, 43.210 96.189, 40.218 97.663 M 40.218 241.663 C 34.726 244.370, 32.500 248.505, 32.500 256 C 32.500 263.465, 34.197 266.555, 40.159 269.945 C 43.813 272.023, 44.004 272.026, 153.159 271.763 L 262.500 271.500 265.712 269.090 C 272.300 264.147, 273.924 254.959, 269.534 247.468 C 264.834 239.448, 273.522 239.997, 151.849 240.023 C 54.088 240.043, 43.179 240.204, 40.218 241.663 M 40.218 385.663 C 34.726 388.370, 32.500 392.505, 32.500 400 C 32.500 407.462, 34.197 410.555, 40.150 413.940 L 43.801 416.016 225.150 415.758 L 406.500 415.500 409.712 413.090 C 416.300 408.147, 417.924 398.959, 413.534 391.468 C 408.756 383.315, 426.141 383.997, 223.849 384.023 C 59.762 384.043, 43.204 384.191, 40.218 385.663" stroke="none" fill="#040404" fill-rule="evenodd"/></svg>