<svg width="17" height="17" viewBox="0 0 17 17" fill="none" xmlns="http://www.w3.org/2000/svg">
<path d="M11.8038 2.66656C12.5767 2.66887 13.3172 2.97692 13.8638 3.52345C14.4103 4.06997 14.7183 4.81054 14.7206 5.58344V11.4166C14.7183 12.1895 14.4103 12.93 13.8638 13.4766C13.3172 14.0231 12.5767 14.3311 11.8038 14.3334H5.97064C5.19775 14.3311 4.45717 14.0231 3.91065 13.4766C3.36413 12.93 3.05608 12.1895 3.05377 11.4166V5.58344C3.05608 4.81054 3.36413 4.06997 3.91065 3.52345C4.45717 2.97692 5.19775 2.66887 5.97064 2.66656H11.8038ZM11.8038 1.5H5.97064C3.72471 1.5 1.88721 3.3375 1.88721 5.58344V11.4166C1.88721 13.6625 3.72471 15.5 5.97064 15.5H11.8038C14.0497 15.5 15.8872 13.6625 15.8872 11.4166V5.58344C15.8872 3.3375 14.0497 1.5 11.8038 1.5Z" fill="black"/>
<path d="M12.6788 5.5835C12.5057 5.5835 12.3365 5.53218 12.1926 5.43603C12.0488 5.33989 11.9366 5.20323 11.8704 5.04334C11.8041 4.88346 11.7868 4.70753 11.8206 4.53779C11.8543 4.36806 11.9377 4.21215 12.0601 4.08978C12.1824 3.96741 12.3383 3.88407 12.5081 3.85031C12.6778 3.81655 12.8537 3.83388 13.0136 3.9001C13.1735 3.96633 13.3102 4.07848 13.4063 4.22237C13.5025 4.36627 13.5538 4.53544 13.5538 4.7085C13.554 4.82347 13.5316 4.93737 13.4877 5.04364C13.4438 5.14991 13.3793 5.24647 13.298 5.32777C13.2167 5.40907 13.1202 5.47351 13.0139 5.51739C12.9076 5.56128 12.7937 5.58374 12.6788 5.5835ZM8.88721 6.16662C9.34872 6.16662 9.79987 6.30348 10.1836 6.55988C10.5673 6.81628 10.8664 7.18071 11.043 7.60709C11.2196 8.03347 11.2658 8.50265 11.1758 8.95529C11.0858 9.40793 10.8635 9.82371 10.5372 10.15C10.2109 10.4764 9.79508 10.6986 9.34244 10.7887C8.8898 10.8787 8.42062 10.8325 7.99424 10.6559C7.56786 10.4793 7.20343 10.1802 6.94703 9.79645C6.69062 9.41272 6.55377 8.96157 6.55377 8.50006C6.55443 7.8814 6.80049 7.28826 7.23795 6.8508C7.67541 6.41334 8.26855 6.16728 8.88721 6.16662ZM8.88721 5.00006C8.19497 5.00006 7.51828 5.20533 6.94271 5.58992C6.36714 5.9745 5.91854 6.52113 5.65363 7.16067C5.38872 7.80021 5.31941 8.50394 5.45446 9.18288C5.58951 9.86181 5.92285 10.4854 6.41233 10.9749C6.90182 11.4644 7.52546 11.7978 8.20439 11.9328C8.88333 12.0679 9.58706 11.9985 10.2266 11.7336C10.8661 11.4687 11.4128 11.0201 11.7974 10.4446C12.1819 9.86898 12.3872 9.19229 12.3872 8.50006C12.3872 7.5718 12.0185 6.68156 11.3621 6.02519C10.7057 5.36881 9.81547 5.00006 8.88721 5.00006Z" fill="black"/>
</svg>
