<svg width="139" height="30" viewBox="0 0 139 30" fill="none" xmlns="http://www.w3.org/2000/svg">
<path fill-rule="evenodd" clip-rule="evenodd" d="M115.693 7.14878H118.963V23.0779H118.734C117.055 23.0779 115.694 21.7087 115.694 20.0207V7.14878H115.693ZM88.1205 23.354C86.0314 23.8005 83.9823 23.4564 81.9825 22.3334C80.0318 21.2369 78.7241 19.6076 78.0709 17.456C76.7483 13.1021 79.4598 8.24991 83.8199 7.07513C85.981 6.49292 88.0552 6.75756 90.0242 7.86446C93.2951 9.70199 94.4873 12.5463 94.279 16.2122L81.105 16.1846C81.2983 17.6792 82.2204 18.8494 83.5155 19.5766C84.8278 20.3153 86.0359 20.4913 87.1571 20.1415C88.3996 19.7492 89.4087 18.7286 90.2301 17.7782L92.9153 19.7457C91.8181 21.7144 90.3274 22.8811 88.1205 23.354ZM90.6157 13.2079C90.2015 11.9215 89.6844 11.2898 88.4911 10.6213C85.6584 9.02888 82.8703 10.3832 81.5718 13.1953L90.6157 13.2079ZM135.379 14.1388C135.379 12.8432 134.89 11.8168 133.909 11.0379C133.027 10.3383 131.923 9.98274 130.584 9.98274C127.624 9.98274 125.725 12.3093 125.725 15.1778C125.725 17.9404 127.738 20.2439 130.553 20.2439C132.51 20.2439 133.558 19.0933 134.674 17.6608V21.7927C134.104 22.2207 133.45 22.6878 132.782 22.9617C132.078 23.2574 131.237 23.4024 130.265 23.4024C125.558 23.4024 122.454 19.4811 122.454 14.9499C122.454 12.6234 123.173 10.7007 124.619 9.20033C126.154 7.61133 128.168 6.82315 130.632 6.82315C135.306 6.82315 138.649 9.52134 138.649 14.3965V23.0767H138.419C136.739 23.0767 135.379 21.7075 135.379 20.0196V14.1388ZM118.763 5.25947C118.42 5.64607 117.928 5.82442 117.327 5.82442C116.205 5.82442 115.402 4.99137 115.402 3.87182C115.402 2.72466 116.19 1.95145 117.327 1.95145C118.421 1.95145 119.253 2.76723 119.253 3.87182C119.254 4.41722 119.095 4.88552 118.763 5.25947ZM109.53 20.9746C108.029 22.5946 106.097 23.4024 103.754 23.4024C101.283 23.4024 99.2684 22.544 97.7365 20.8227C96.2949 19.1946 95.5776 17.1545 95.5776 14.7221C95.5776 10.4188 98.8817 6.82315 103.226 6.82315C104.903 6.82315 106.358 7.17754 107.83 7.98988V11.551C106.649 10.7479 105.17 9.98159 103.709 9.98159C100.662 9.98159 98.8474 12.0895 98.8474 15.08C98.8474 18.0313 100.767 20.2439 103.77 20.2439C105.131 20.2439 106.252 19.7308 107.148 18.6987C108.038 17.6723 108.501 16.165 108.501 14.1388V3.05834C108.501 1.37039 109.863 0 111.543 0H111.771V14.6577C111.771 17.2397 111.03 19.3522 109.53 20.9746ZM74.1238 21.0919C72.617 22.6292 70.8151 23.4035 68.726 23.4035C67.0374 23.4035 65.6015 23.056 64.136 22.2V18.6745C65.3155 19.4776 66.7948 20.2439 68.257 20.2439C71.3036 20.2439 73.1182 18.1349 73.1182 15.1467C73.1182 12.1551 71.2407 9.98274 68.194 9.98274C66.8314 9.98274 65.7285 10.4752 64.8659 11.4613C63.9415 12.5314 63.4644 14.0582 63.4644 16.0787V30H63.2344C61.5561 30 60.1935 28.6308 60.1935 26.9428V15.5575C60.1935 10.726 63.1315 6.82545 68.1792 6.82545C70.6698 6.82545 72.6948 7.68266 74.229 9.40398C75.6717 11.0114 76.3879 13.0514 76.3879 15.5045C76.3879 17.6861 75.634 19.5524 74.1238 21.0919Z" fill="#1EA639"/>
<path fill-rule="evenodd" clip-rule="evenodd" d="M21.4149 11.4072C20.5133 10.4579 19.3693 9.98274 17.962 9.98274C14.952 9.98274 13.1523 12.1896 13.1523 15.1145C13.1523 17.9979 14.9966 20.2451 17.962 20.2451C20.9286 20.2451 22.7729 17.9991 22.7729 15.1145C22.774 13.5819 22.3164 12.353 21.4149 11.4072ZM53.583 11.4072C52.6814 10.4579 51.5362 9.98274 50.1301 9.98274C47.1212 9.98274 45.3193 12.1896 45.3193 15.1145C45.3193 17.9979 47.1635 20.2451 50.1301 20.2451C53.0979 20.2451 54.9398 17.9991 54.9398 15.1145C54.9398 13.5819 54.4845 12.353 53.583 11.4072ZM55.9432 21.0632C54.3278 22.6211 52.3851 23.4024 50.1301 23.4024C47.8957 23.4024 45.9657 22.6211 44.3491 21.0632C42.7291 19.4995 41.9214 17.5101 41.9214 15.1133C41.9214 10.4349 45.4726 6.8243 50.1301 6.8243C52.3668 6.8243 54.3014 7.61132 55.9272 9.17961C57.5575 10.7525 58.3732 12.7362 58.3732 15.1145C58.3732 17.5112 57.5644 19.5006 55.9432 21.0632ZM39.0634 10.9815C38.5841 11.7904 38.2122 12.3714 37.9503 12.7212C37.6619 13.1021 37.3771 13.407 37.0956 13.6164C39.3678 14.3551 40.2144 15.9383 40.2144 18.2982V23.0779H39.9844C38.3049 23.0779 36.9435 21.7087 36.9435 20.0207V18.6227C36.9435 17.097 36.2639 16.0591 34.6542 16.0591H31.6841V23.0779H31.4553C29.7758 23.0779 28.4144 21.7087 28.4144 20.0207V3.05834C28.4144 1.37039 29.7758 0 31.4553 0H31.6841V12.8673H32.6509C33.7126 12.8673 34.4116 12.5026 34.8109 11.8122L37.5578 7.14993L41.2841 7.14647L39.0634 10.9815ZM23.7763 21.0632C22.1597 22.6211 20.2182 23.4024 17.962 23.4024C15.7277 23.4024 13.7965 22.6211 12.1822 21.0632C10.561 19.4995 9.75213 17.5101 9.75213 15.1133C9.75213 10.4349 13.3056 6.8243 17.962 6.8243C20.1976 6.8243 22.1334 7.61132 23.7591 9.17961C25.3906 10.7525 26.2051 12.7362 26.2051 15.1145C26.2051 17.5112 25.3963 19.5006 23.7763 21.0632ZM4.78454 23.0779C1.58798 23.0779 0 20.8894 0 17.8345V6.24209C0 4.55299 1.36145 3.1849 3.04096 3.1849H3.26978V7.14878H8.79454V10.3072H3.26978V18.1993C3.26978 19.5421 3.86584 19.9195 5.14035 19.9195H8.79454V23.0779H4.78454Z" fill="#1EA639"/>
</svg>
